<svg width="16" height="16" viewBox="0 0 16 16" fill="none" xmlns="http://www.w3.org/2000/svg">
<g clip-path="url(#clip0_119_2)">
<path d="M4.01532 12.902C4.59723 13.5363 5.42759 13.9024 6.28738 13.9024H13.3781C14.8231 13.9024 16 12.7255 16 11.2806V4.71939C16 3.27443 14.8231 2.09753 13.3781 2.09753H6.28738C5.42432 2.09753 4.59723 2.46041 4.01532 3.09789L0.360423 7.07644C-0.120141 7.60277 -0.120141 8.3939 0.360423 8.92023L4.01532 12.902ZM0.952138 7.61912L4.60704 3.6373C5.03857 3.16654 5.65316 2.89847 6.29065 2.89847H13.3814C14.385 2.89847 15.2023 3.71576 15.2023 4.71939V11.2773C15.2023 12.2809 14.385 13.0982 13.3814 13.0982H6.28738C5.6499 13.0982 5.0353 12.8301 4.60377 12.3594L0.952138 8.37756C0.75272 8.16179 0.75272 7.83488 0.952138 7.61912Z" fill="white"/>
<path d="M7.36947 10.1266C7.44793 10.205 7.54927 10.2442 7.65389 10.2442C7.7585 10.2442 7.85984 10.205 7.9383 10.1266L9.50095 8.5639L11.0636 10.1266C11.1421 10.205 11.2434 10.2442 11.348 10.2442C11.4526 10.2442 11.554 10.205 11.6324 10.1266C11.7894 9.96964 11.7894 9.71791 11.6324 9.56099L10.0665 7.99834L11.6292 6.43569C11.7861 6.27877 11.7861 6.02705 11.6292 5.87013C11.4722 5.71321 11.2205 5.71321 11.0636 5.87013L9.50095 7.43278L7.9383 5.87013C7.78138 5.71321 7.52966 5.71321 7.37274 5.87013C7.21582 6.02705 7.21582 6.27877 7.37274 6.43569L8.93539 7.99834L7.37274 9.56099C7.21582 9.71791 7.21582 9.9696 7.36947 10.1266Z" fill="white"/>
</g>
<defs>
<clipPath id="clip0_119_2">
<rect width="16" height="16" fill="white"/>
</clipPath>
</defs>
</svg>
