<svg width="25" height="25" viewBox="0 0 25 25" fill="none" xmlns="http://www.w3.org/2000/svg">
<path d="M12.5752 24.49L2.77386 22.5644L0.590004 5.20862H24.59L22.4038 22.5619L12.5752 24.49Z" fill="#264DE4"/>
<path d="M20.5319 21.4575L22.4002 6.62854H12.5918V23.0139L20.5319 21.4575Z" fill="#2965F1"/>
<path d="M5.60295 13.0627L5.87239 15.1909H12.5965V13.0627H5.60295ZM5.06171 8.75427L5.33469 10.8825H12.5953V8.75427H5.0558H5.06171ZM12.5953 18.5909H12.5823L9.23562 17.9504L9.02173 16.2525H6.00001L6.42071 19.5947L12.5752 20.8079H12.5894L12.5953 18.5909Z" fill="#EBEBEB"/>
<path d="M6.23873 0.48999H9.87732V1.56834H7.75963V2.64669H9.87732V3.72504H6.23873V0.48999ZM10.6112 0.48999H14.2498V1.42769H12.1273V1.61523H14.245V3.77193H10.6053V2.78735H12.7229V2.59981H10.6053V0.48999H10.6112ZM14.9836 0.48999H18.6222V1.42769H16.4939V1.61523H18.6116V3.77193H14.9718V2.78735H17.0895V2.59981H14.9718V0.48999H14.9836Z" fill="black"/>
<path d="M19.5641 13.0627L20.1065 8.75427H12.5752V10.8825H16.8094L16.5364 13.0593H12.5752V15.1875H16.2753L15.9207 17.9504L12.5752 18.5926V20.807L18.7345 19.5972L18.7794 19.2372L19.4884 13.6328L19.5617 13.061L19.5641 13.0627Z" fill="white"/>
</svg>
