<svg xmlns:xlink="http://www.w3.org/1999/xlink" xmlns="http://www.w3.org/2000/svg" data-testid="all-icon" width="24" height="24" viewBox="0 0 40 40" fill="none"><path d="M0 20C0 8.95431 8.95431 0 20 0C31.0457 0 40 8.95431 40 20C40 31.0457 31.0457 40 20 40C8.95431 40 0 31.0457 0 20Z" fill="#11C1B9"></path><path d="M13.0211 24.6333H8.79993V15.435L13.0211 14.676V24.6333Z" fill="#000000"></path><path d="M19.0809 24.6325H14.8597V13.4247L19.0809 12.6252V24.6325Z" fill="#000000"></path><path d="M25.1375 11.5999H20.9163V24.6336H25.1375V11.5999Z" fill="#000000"></path><path d="M31.2001 24.6341H26.9789V13.417L31.2001 14.176V24.6341Z" fill="#000000"></path><path d="M31.1969 26.4817H20.9223V30.7029H31.1969V26.4817Z" fill="#000000"></path></svg>